<?xml version="1.0" encoding="UTF-8"?>
<svg version="1.1" xmlns="http://www.w3.org/2000/svg" width="195" height="211">
<path d="M0 0 C64.35 0 128.7 0 195 0 C195 69.63 195 139.26 195 211 C130.65 211 66.3 211 0 211 C0 141.37 0 71.74 0 0 Z " fill="#3FBDE4" transform="translate(0,0)"/>
<path d="M0 0 C2.24168216 2.24168216 2.47857635 3.22648542 3.18579102 6.24560547 C3.39719727 7.13172012 3.60860352 8.01783478 3.82641602 8.93080139 C4.04998779 9.89980881 4.27355957 10.86881622 4.50390625 11.8671875 C4.74286621 12.87595444 4.98182617 13.88472137 5.22802734 14.92405701 C5.74308029 17.1012838 6.25492943 19.27927043 6.76394653 21.45791626 C8.10962585 27.21620183 9.47852853 32.96897893 10.84375 38.72265625 C11.11570694 39.87185043 11.38766388 41.02104462 11.66786194 42.20506287 C13.89260166 51.5931799 16.19934675 60.95839157 18.5625 70.3125 C21.07306994 80.25803472 23.54652039 90.21125436 25.96484375 100.1796875 C26.21722305 101.21870712 26.46960236 102.25772675 26.72962952 103.32823181 C27.97728256 108.46621286 29.22106737 113.60508478 30.45922852 118.74536133 C30.91017453 120.60501551 31.36125804 122.46463636 31.8125 124.32421875 C32.01934921 125.1889682 32.22619843 126.05371765 32.4393158 126.94467163 C33.09184838 130.78333548 33.09184838 130.78333548 35 134 C37.73894085 134.08858646 40.4525327 134.11523479 43.19140625 134.09765625 C44.42116432 134.09553383 44.42116432 134.09553383 45.67576599 134.09336853 C48.30471382 134.08775289 50.93357773 134.07519779 53.5625 134.0625 C55.34049357 134.05748701 57.11848846 134.05292376 58.89648438 134.04882812 C63.26435545 134.03777839 67.63216348 134.02050331 72 134 C74.86846374 126.03817436 76.85684043 117.88499408 78.87255859 109.67730713 C79.95803978 105.26178505 81.05850506 100.8499859 82.15625 96.4375 C82.38513916 95.51615265 82.61402832 94.5948053 82.84985352 93.64553833 C85.30541414 83.76194934 87.77184323 73.88120888 90.27172852 64.00872803 C90.75662309 62.08869669 91.23888986 60.16799977 91.71850586 58.24664307 C92.3891584 55.56117333 93.06849419 52.8780452 93.75 50.1953125 C93.94855591 49.39198486 94.14711182 48.58865723 94.35168457 47.76098633 C95.77182841 42.22817159 95.77182841 42.22817159 98 40 C102.46254167 56.77971762 106.91176247 73.56264761 111.25 90.375 C111.57959717 91.65205811 111.90919434 92.92911621 112.2487793 94.24487305 C113.68958648 99.84534189 115.11811984 105.44814422 116.50390625 111.0625 C116.72852539 111.97209473 116.95314453 112.88168945 117.18457031 113.81884766 C117.58217539 115.43740331 117.97647373 117.05677791 118.36621094 118.67724609 C119.65207969 123.93124402 121.27403845 128.82211536 123 134 C135.21 134 147.42 134 160 134 C164.1327213 119.53547544 168.02440784 105.08660854 171.46875 90.4453125 C173.07416956 83.63273133 174.78542199 76.84827941 176.5 70.0625 C179.03121263 60.01709528 181.41975275 49.94760167 183.71728516 39.84643555 C186.61445583 27.1822438 189.80569948 14.59198393 193 2 C193.66 2 194.32 2 195 2 C195 49.85 195 97.7 195 147 C130.65 147 66.3 147 0 147 C0 98.49 0 49.98 0 0 Z " fill="#FAFCFC" transform="translate(0,64)"/>
<path d="M0 0 C64.35 0 128.7 0 195 0 C195 8.58 195 17.16 195 26 C181.8 26.33 168.6 26.66 155 27 C151.52156072 43.69650854 148.09800708 60.40194387 144.75 77.125 C144.57782959 77.98335449 144.40565918 78.84170898 144.22827148 79.72607422 C142.40837006 88.80386416 140.59961356 97.88015849 139 107 C138.34 107 137.68 107 137 107 C136.67128906 105.783125 136.34257812 104.56625 136.00390625 103.3125 C133.64641603 94.61586762 131.27167824 85.92523588 128.80859375 77.2578125 C128.23309026 75.23067002 127.65764551 73.2035109 127.08227539 71.17633057 C126.69384161 69.80789545 126.30516941 68.43952798 125.91625977 67.07122803 C123.00042173 56.79458 120.28272324 46.48675207 117.8515625 36.08251953 C117.63371094 35.17099121 117.41585937 34.25946289 117.19140625 33.3203125 C116.91598999 32.13332764 116.91598999 32.13332764 116.63500977 30.92236328 C116.09073324 28.79097747 116.09073324 28.79097747 114 27 C111.41896694 26.82497005 108.94691837 26.76837721 106.3671875 26.8046875 C105.61535187 26.8075174 104.86351624 26.81034729 104.08889771 26.81326294 C101.68410422 26.82447126 99.27968119 26.84957648 96.875 26.875 C95.24609912 26.88502898 93.61719242 26.89415497 91.98828125 26.90234375 C87.99204444 26.92441265 83.99608506 26.95894649 80 27 C79.82460693 27.62640381 79.64921387 28.25280762 79.46850586 28.89819336 C75.34558105 43.6229248 75.34558105 43.6229248 71.22265625 58.34765625 C70.93745117 59.36633789 70.65224609 60.38501953 70.35839844 61.43457031 C69.78502382 63.48215043 69.21145536 65.52967629 68.63769531 67.57714844 C67.11194624 73.02281976 65.59024513 78.46958204 64.07421875 83.91796875 C63.60048828 85.61759766 63.60048828 85.61759766 63.1171875 87.3515625 C62.51309477 89.51918935 61.91016444 91.68714061 61.30859375 93.85546875 C59.98159373 98.61263865 58.62918051 103.33498067 57 108 C56.67 108 56.34 108 56 108 C55.66790527 106.23293701 55.66790527 106.23293701 55.32910156 104.43017578 C54.48962064 99.96769911 53.64621749 95.50597054 52.80175781 91.04443359 C52.4400468 89.13056621 52.07933397 87.21650985 51.71972656 85.30224609 C49.75463227 74.84552928 47.72877222 64.41604117 45.35443115 54.04348755 C43.23150708 44.75977837 41.56544056 35.39264335 40 26 C26.8 26 13.6 26 0 26 C0 17.42 0 8.84 0 0 Z " fill="#FAFCFC" transform="translate(0,0)"/>
<path d="M0 0 C13.2 0 26.4 0 40 0 C40 0.33 40 0.66 40 1 C38.28115601 1.03758423 38.28115601 1.03758423 36.52758789 1.07592773 C32.29146402 1.16983106 28.05551072 1.27009275 23.81958008 1.37231445 C21.98335753 1.4157282 20.14709292 1.45739839 18.31079102 1.49731445 C15.67711689 1.55486169 13.04365579 1.61859998 10.41015625 1.68359375 C9.58411392 1.70030624 8.75807159 1.71701874 7.90699768 1.73423767 C4.14523247 1.47807433 4.14523247 1.47807433 1 3 C0.71756753 4.32491881 0.48697793 5.66102503 0.28125 7 C0.08982422 8.2065625 0.08982422 8.2065625 -0.10546875 9.4375 C-0.23566406 10.283125 -0.36585938 11.12875 -0.5 12 C-0.75669458 13.66724399 -1.01692457 15.33394878 -1.28125 17 C-1.39533203 17.7425 -1.50941406 18.485 -1.62695312 19.25 C-2 21 -2 21 -3 22 C-3.52987695 24.35265368 -4.00306938 26.69177369 -4.4375 29.0625 C-4.56874268 29.76826172 -4.69998535 30.47402344 -4.83520508 31.20117188 C-6.20155999 38.76250472 -7.13725437 46.36723868 -8 54 C-8.33 54 -8.66 54 -9 54 C-9.185625 55.794375 -9.185625 55.794375 -9.375 57.625 C-9.83091638 61.29801643 -10.80678231 64.49053621 -12 68 C-12.7351662 71.32075074 -13.37882315 74.65621822 -14 78 C-14.33 78 -14.66 78 -15 78 C-15.37691661 70.49147052 -13.9499527 63.53537591 -12.48046875 56.19140625 C-12.21812177 54.85686215 -11.95627476 53.52221969 -11.69490051 52.18748474 C-11.14736472 49.40029773 -10.59457916 46.61422062 -10.0378418 43.82885742 C-9.32935432 40.28266177 -8.63287279 36.73423884 -7.9402113 33.18492222 C-7.40155973 30.43088536 -6.85706589 27.67802827 -6.31081581 24.92548943 C-5.92743193 22.98920024 -5.54840023 21.05205094 -5.16947937 19.11488342 C-4.92945694 17.92011887 -4.68943451 16.72535431 -4.44213867 15.49438477 C-4.2356218 14.45484146 -4.02910492 13.41529816 -3.81632996 12.34425354 C-2.79500449 8.16019625 -1.36196333 4.08588999 0 0 Z " fill="#5AB8D3" transform="translate(155,26)"/>
<path d="M0 0 C2.20324589 3.30486883 2.74426937 5.76089514 3.5625 9.625 C4.11685769 13.62999584 4.11685769 13.62999584 6 17 C8.73894085 17.08858646 11.4525327 17.11523479 14.19140625 17.09765625 C15.01124496 17.0962413 15.83108368 17.09482635 16.67576599 17.09336853 C19.30471382 17.08775289 21.93357773 17.07519779 24.5625 17.0625 C26.34049357 17.05748701 28.11848846 17.05292376 29.89648438 17.04882812 C34.26435545 17.03777839 38.63216348 17.02050331 43 17 C43.47719737 15.5957088 43.95197814 14.1905963 44.42578125 12.78515625 C44.69044189 12.00277588 44.95510254 11.22039551 45.2277832 10.41430664 C46.32687301 6.97804389 47.17028478 3.51033361 48 0 C48.995466 3.25440809 49.09129646 6.04728806 48.875 9.4375 C48.83117187 10.36433594 48.78734375 11.29117188 48.7421875 12.24609375 C47.70055282 16.11110663 46.1349133 17.52164112 43 20 C40.09603343 20.71967827 37.28543063 20.70196337 34.3046875 20.6640625 C33.47542755 20.66884613 32.6461676 20.67362976 31.79177856 20.67855835 C30.04524835 20.68195055 28.29865406 20.67279561 26.55224609 20.65185547 C23.87584707 20.6250085 21.20361525 20.65165734 18.52734375 20.68359375 C16.82811574 20.68029086 15.12889032 20.67388711 13.4296875 20.6640625 C12.62965302 20.67418365 11.82961853 20.68430481 11.00534058 20.69473267 C8.74951172 20.64697266 8.74951172 20.64697266 5 20 C3.04345703 17.58740234 3.04345703 17.58740234 2 15 C1.62875 14.319375 1.2575 13.63875 0.875 12.9375 C-1.2209681 8.29642777 -0.87339831 5.04630136 0 0 Z " fill="#D6F9FD" transform="translate(29,181)"/>
<path d="M0 0 C2.96357359 2.96357359 3.38845368 6.66532679 4.375 10.625 C4.59414063 11.48311279 4.81328125 12.34122559 5.0390625 13.2253418 C5.48721017 14.98487509 5.93219532 16.74521687 6.37402344 18.50634766 C6.92149391 20.68726161 7.47782575 22.86556786 8.0390625 25.04296875 C10.04223171 32.90092928 11.91709471 40.78827365 13.75 48.6875 C13.97300781 49.63278564 14.19601563 50.57807129 14.42578125 51.55200195 C14.63074219 52.4462085 14.83570313 53.34041504 15.046875 54.26171875 C15.23088867 55.05537842 15.41490234 55.84903809 15.60449219 56.66674805 C16.02572895 59.15178492 16.0680009 61.48424536 16 64 C14.05703212 61.08554817 13.41572257 59.26386963 12.59545898 55.92114258 C12.33856796 54.88609085 12.08167694 53.85103912 11.81700134 52.78462219 C11.54610184 51.66589218 11.27520233 50.54716217 10.99609375 49.39453125 C10.71274673 48.2413591 10.42939972 47.08818695 10.13746643 45.90007019 C9.53871397 43.45711516 8.94292203 41.01343292 8.34985352 38.5690918 C7.44488652 34.84291382 6.52885042 31.11958815 5.61132812 27.39648438 C5.03058291 25.02099632 4.45048392 22.64535017 3.87109375 20.26953125 C3.59817001 19.16092239 3.32524628 18.05231354 3.04405212 16.91011047 C1.68283438 11.27287911 0.57234325 5.77268976 0 0 Z " fill="#5AB8D2" transform="translate(17,128)"/>
<path d="M0 0 C2.17175481 3.25763222 2.46043998 4.22439213 2 8 C1.525625 8.5775 1.05125 9.155 0.5625 9.75 C-1.82751378 13.19161985 -1.74569923 16.89611165 -2 21 C-2.33 21 -2.66 21 -3 21 C-3.19335938 21.97582031 -3.38671875 22.95164062 -3.5859375 23.95703125 C-3.84632812 25.22933594 -4.10671875 26.50164062 -4.375 27.8125 C-4.63023438 29.07707031 -4.88546875 30.34164062 -5.1484375 31.64453125 C-6 35 -6 35 -8 38 C-8.44111565 39.88154883 -8.8109267 41.78062638 -9.125 43.6875 C-9.29257813 44.68136719 -9.46015625 45.67523438 -9.6328125 46.69921875 C-9.75398438 47.45847656 -9.87515625 48.21773437 -10 49 C-10.66 49 -11.32 49 -12 49 C-11.31236672 43.42278962 -10.12628369 38.08162134 -8.75 32.63671875 C-8.53182617 31.76352493 -8.31365234 30.89033112 -8.08886719 29.99067688 C-7.62995091 28.15734041 -7.16931042 26.32443476 -6.70703125 24.49194336 C-5.99810455 21.67998167 -5.29553396 18.86648621 -4.59375 16.05273438 C-4.14620718 14.26813537 -3.6983033 12.48362687 -3.25 10.69921875 C-3.03956055 9.85654953 -2.82912109 9.01388031 -2.61230469 8.14567566 C-1.1155429 2.2310858 -1.1155429 2.2310858 0 0 Z " fill="#D0F6FB" transform="translate(97,104)"/>
<path d="M0 0 C0.33 0 0.66 0 1 0 C0.3096091 6.95442538 -1.21588614 13.59286628 -2.875 20.375 C-3.13152344 21.4475 -3.38804688 22.52 -3.65234375 23.625 C-5.2323757 30.15156414 -6.99202256 36.59205769 -9 43 C-9.33 43 -9.66 43 -10 43 C-9.91073914 41.35329099 -9.80258969 39.70760559 -9.6875 38.0625 C-9.62949219 37.14597656 -9.57148437 36.22945312 -9.51171875 35.28515625 C-8.974206 31.83440647 -7.99129238 28.8349846 -6.84448242 25.54907227 C-5.25401775 20.74825074 -4.06401557 15.83540662 -2.8125 10.9375 C-2.40354492 9.35291992 -2.40354492 9.35291992 -1.98632812 7.73632812 C-1.32139747 5.15826365 -0.65935033 2.57949621 0 0 Z " fill="#4FB1CE" transform="translate(86,141)"/>
<path d="M0 0 C0.33 0 0.66 0 1 0 C1.20496094 1.14339844 1.40992187 2.28679687 1.62109375 3.46484375 C1.8930231 4.95576676 2.16516974 6.44665016 2.4375 7.9375 C2.57220703 8.69224609 2.70691406 9.44699219 2.84570312 10.22460938 C3.24272034 13.91953174 3.24272034 13.91953174 5 17 C5.53927517 19.45604671 6.03623476 21.90464652 6.5 24.375 C7.51052956 29.74529023 7.51052956 29.74529023 9 35 C9.03954234 37.33299825 9.04401732 39.66708189 9 42 C8.67 42 8.34 42 8 42 C7.86948242 41.44763672 7.73896484 40.89527344 7.60449219 40.32617188 C7.21162088 38.66524135 6.81817579 37.0044465 6.42431641 35.34375 C5.97236421 33.43776188 5.52152943 31.53150847 5.07177734 29.625 C4.00919105 25.14270828 2.92880442 20.66998286 1.7421875 16.21875 C1.55301758 15.50138672 1.36384766 14.78402344 1.16894531 14.04492188 C0.65455664 12.11111598 0.12841387 10.18044776 -0.3984375 8.25 C-0.98947089 5.05688452 -0.90031824 3.08680539 0 0 Z " fill="#56B8D2" transform="translate(108,136)"/>
<path d="M0 0 C4.78715623 -0.07415168 9.57397827 -0.12860204 14.36157227 -0.16479492 C15.99021223 -0.17988243 17.61881156 -0.20035506 19.24731445 -0.22631836 C21.58815535 -0.26270449 23.92845919 -0.2797262 26.26953125 -0.29296875 C26.99775589 -0.30845261 27.72598053 -0.32393646 28.47627258 -0.33988953 C33.48542982 -0.34155753 33.48542982 -0.34155753 35.94018555 1.2878418 C37.62711988 4.0131287 37.70374642 6.85971202 38 10 C37.34 10 36.68 10 36 10 C35.34 7.36 34.68 4.72 34 2 C23.11 1.67 12.22 1.34 1 1 C1 1.66 1 2.32 1 3 C0.34 3 -0.32 3 -1 3 C-0.67 2.01 -0.34 1.02 0 0 Z " fill="#53B4D0" transform="translate(80,26)"/>
<path d="M0 0 C0.33 0 0.66 0 1 0 C0.4181676 7.14711654 -0.66534594 14.09479725 -2.0625 21.125 C-2.3419043 22.55972656 -2.3419043 22.55972656 -2.62695312 24.0234375 C-3.08059056 26.34978331 -3.53832038 28.67523936 -4 31 C-4.33 31 -4.66 31 -5 31 C-4.75274981 19.98500409 -3.9478474 10.39293781 0 0 Z " fill="#E5FCFD" transform="translate(151,35)"/>
<path d="M0 0 C0.66 0 1.32 0 2 0 C2.19335938 0.85722656 2.38671875 1.71445313 2.5859375 2.59765625 C4.18580194 9.6868381 4.18580194 9.6868381 6.125 16.6875 C7.28761784 21.08883896 7.65367822 25.47047561 8 30 C6.00689559 27.01034338 5.34684285 25.00627515 4.4921875 21.5625 C4.22792969 20.50289062 3.96367187 19.44328125 3.69140625 18.3515625 C3.42199219 17.24554688 3.15257812 16.13953125 2.875 15 C2.59785156 13.89398438 2.32070312 12.78796875 2.03515625 11.6484375 C0 3.4075585 0 3.4075585 0 0 Z " fill="#5DBAD4" transform="translate(9,96)"/>
<path d="M0 0 C0.28875 0.639375 0.5775 1.27875 0.875 1.9375 C1.82823451 4.15206079 1.82823451 4.15206079 4 5 C4.66 3.35 5.32 1.7 6 0 C6.33 0 6.66 0 7 0 C6.49058038 3.99045366 5.86372213 7.93197772 5.0625 11.875 C4.90910156 12.63554688 4.75570312 13.39609375 4.59765625 14.1796875 C4.40042969 14.78039062 4.20320313 15.38109375 4 16 C3.34 16.33 2.68 16.66 2 17 C1.66151348 15.10507994 1.32943089 13.20901534 1 11.3125 C0.814375 10.25675781 0.62875 9.20101562 0.4375 8.11328125 C0.04931926 5.35095938 -0.08259976 2.78257957 0 0 Z " fill="#E7FDFE" transform="translate(54,91)"/>
<path d="M0 0 C0.66 0 1.32 0 2 0 C3.83971182 3.21949568 4.46954526 6.09365124 5 9.75 C5.55620798 13.37418055 6.16762454 16.89790763 7.125 20.4375 C7.87416115 23.48765611 8.19439839 25.88962569 8 29 C6.05313099 26.07969649 5.36062172 24.12951411 4.4921875 20.78125 C4.22792969 19.76675781 3.96367188 18.75226563 3.69140625 17.70703125 C3.28728516 16.11955078 3.28728516 16.11955078 2.875 14.5 C2.59785156 13.44167969 2.32070312 12.38335937 2.03515625 11.29296875 C0 3.40297876 0 3.40297876 0 0 Z " fill="#59B8CF" transform="translate(99,109)"/>
<path d="M0 0 C0.66 0 1.32 0 2 0 C2.99 3.63 3.98 7.26 5 11 C5.99 11 6.98 11 8 11 C8.125 17.625 8.125 17.625 7 21 C6.34 21 5.68 21 5 21 C4.16267257 17.87605609 3.33082018 14.75068026 2.5 11.625 C2.26152344 10.73554687 2.02304688 9.84609375 1.77734375 8.9296875 C1.55175781 8.07890625 1.32617188 7.228125 1.09375 6.3515625 C0.88427734 5.56604004 0.67480469 4.78051758 0.45898438 3.97119141 C0 2 0 2 0 0 Z " fill="#D5F7FC" transform="translate(132,86)"/>
<path d="M0 0 C0.33 0 0.66 0 1 0 C1.05437607 1.58294782 1.09296271 3.16644256 1.125 4.75 C1.14820313 5.63171875 1.17140625 6.5134375 1.1953125 7.421875 C0.9884684 10.1522171 0.30335979 11.63025493 -1 14 C-1.38290462 15.99110401 -1.72604615 17.99100513 -2 20 C-2.66 20 -3.32 20 -4 20 C-3.42978625 13.04339229 -1.98697306 6.68572695 0 0 Z " fill="#D3F7FB" transform="translate(172,152)"/>
<path d="M0 0 C2.64719527 3.97079291 3.49821198 7.97815047 4.6875 12.5625 C4.92533203 13.43841797 5.16316406 14.31433594 5.40820312 15.21679688 C5.62798828 16.05404297 5.84777344 16.89128906 6.07421875 17.75390625 C6.27619873 18.52033447 6.47817871 19.2867627 6.6862793 20.07641602 C7 22 7 22 6 24 C5.72736328 23.12988281 5.72736328 23.12988281 5.44921875 22.2421875 C4.28369533 18.62009934 3.18507818 15.32902788 1.3125 12 C-0.46309398 7.94149948 -0.26180747 4.36345792 0 0 Z " fill="#D2F4F9" transform="translate(105,135)"/>
<path d="M0 0 C1.04750157 3.33152755 1.00335257 6.0975502 0.6875 9.5625 C0.60886719 10.51253906 0.53023438 11.46257812 0.44921875 12.44140625 C0 15 0 15 -2 18 C-2.99 17.67 -3.98 17.34 -5 17 C-4.80664062 16.443125 -4.61328125 15.88625 -4.4140625 15.3125 C-2.68625575 10.24882873 -1.2306933 5.20677935 0 0 Z " fill="#D5F6FB" transform="translate(77,181)"/>
<path d="M0 0 C0.33 0 0.66 0 1 0 C0.22095672 13.6332574 0.22095672 13.6332574 -2 20 C-2.66 20 -3.32 20 -4 20 C-3.34034961 13.13963599 -1.7637236 6.65556077 0 0 Z " fill="#D6F9FD" transform="translate(177,132)"/>
<path d="M0 0 C0.66 0 1.32 0 2 0 C1.66666667 2.33333333 1.33333333 4.66666667 1 7 C0.87625 8.258125 0.7525 9.51625 0.625 10.8125 C0.41875 11.864375 0.2125 12.91625 0 14 C-0.99 14.66 -1.98 15.32 -3 16 C-2.40984815 10.49191603 -1.43336231 5.35121931 0 0 Z " fill="#CDF5FB" transform="translate(193,66)"/>
<path d="M0 0 C0.33 0 0.66 0 1 0 C1.625 3.375 1.625 3.375 2 7 C1.34 7.66 0.68 8.32 0 9 C-0.67651207 11.19704511 -0.67651207 11.19704511 -1.125 13.625 C-1.37636719 14.85089844 -1.37636719 14.85089844 -1.6328125 16.1015625 C-1.75398438 16.72804687 -1.87515625 17.35453125 -2 18 C-2.66 18 -3.32 18 -4 18 C-3.35155914 13.80716882 -2.48783354 9.73500079 -1.4375 5.625 C-1.16808594 4.56539062 -0.89867188 3.50578125 -0.62109375 2.4140625 C-0.31365234 1.21910156 -0.31365234 1.21910156 0 0 Z " fill="#D8F8FC" transform="translate(82,162)"/>
<path d="M0 0 C1.32 0 2.64 0 4 0 C4.50904657 1.87256417 5.00682455 3.74819341 5.5 5.625 C5.7784375 6.66914062 6.056875 7.71328125 6.34375 8.7890625 C6.99118596 11.95687418 7.1161292 14.77741467 7 18 C4.81999729 14.02525368 3.87308389 9.93186319 2.78125 5.55859375 C2.07183332 2.79625519 2.07183332 2.79625519 0 0 Z " fill="#DCF9FD" transform="translate(114,26)"/>
<path d="M0 0 C0.33 0 0.66 0 1 0 C1.38133299 1.9914056 1.71325582 3.99279077 2 6 C1.67 6.33 1.34 6.66 1 7 C0.87625 8.134375 0.7525 9.26875 0.625 10.4375 C0.41875 11.613125 0.2125 12.78875 0 14 C-0.99 14.66 -1.98 15.32 -3 16 C-2.40984815 10.49191603 -1.43336231 5.35121931 0 0 Z " fill="#CBF2F9" transform="translate(189,82)"/>
<path d="M0 0 C1.94068531 3.88137061 2.76441927 7.02533097 3.625 11.25 C3.88539062 12.51328125 4.14578125 13.7765625 4.4140625 15.078125 C4.60742188 16.04234375 4.80078125 17.0065625 5 18 C4.34 17.67 3.68 17.34 3 17 C2.40644386 14.35139573 2.25790731 11.70802678 2 9 C1.34 9 0.68 9 0 9 C0 6.03 0 3.06 0 0 Z " fill="#D0F3F9" transform="translate(113,165)"/>
<path d="M0 0 C2.12966005 2.12966005 2.47624662 3.04068204 3.1875 5.875 C3.36667969 6.55304688 3.54585938 7.23109375 3.73046875 7.9296875 C4.02970718 10.22818556 3.69377386 11.80550964 3 14 C0.56574762 9.03006806 -0.34615998 5.65394631 0 0 Z " fill="#D4F6FA" transform="translate(0,64)"/>
<path d="M0 0 C0.66 0 1.32 0 2 0 C3.98362069 2.91708924 3.9876191 4.12380904 3.625 7.75 C3.41875 8.8225 3.2125 9.895 3 11 C0.87953208 7.46588679 0.46800711 4.05606165 0 0 Z " fill="#62C0DA" transform="translate(99,109)"/>
<path d="M0 0 C1.38076179 3.83544942 0.85712183 7.07152497 0 11 C-1.5625 12.9375 -1.5625 12.9375 -3 14 C-2.48594831 9.03083364 -1.76615118 4.70973649 0 0 Z " fill="#5FBAD5" transform="translate(67,71)"/>
<path d="M0 0 C2.42130331 2.42130331 2.52840504 3.80111377 3.125 7.125 C3.29257813 8.03507813 3.46015625 8.94515625 3.6328125 9.8828125 C3.81457031 10.93082031 3.81457031 10.93082031 4 12 C3.34 11.67 2.68 11.34 2 11 C2 10.01 2 9.02 2 8 C1.34 8 0.68 8 0 8 C0 5.36 0 2.72 0 0 Z " fill="#D6F6FA" transform="translate(101,120)"/>
<path d="M0 0 C0.33 0 0.66 0 1 0 C1.125 7.75 1.125 7.75 0 10 C-0.66 10 -1.32 10 -2 10 C-1.125 2.25 -1.125 2.25 0 0 Z " fill="#5DBBD5" transform="translate(70,60)"/>
<path d="M0 0 C2 1 2 1 3.125 3.75 C3.91973395 6.70186896 4.17810598 8.97219837 4 12 C0.46209597 8.30827405 0.40884117 4.90609405 0 0 Z " fill="#50B5CF" transform="translate(132,92)"/>
<path d="M0 0 C0.66 1.32 1.32 2.64 2 4 C2.33 4.33 2.66 4.66 3 5 C3.04063832 6.66617115 3.042721 8.33388095 3 10 C2.01 10.495 2.01 10.495 1 11 C0.67 7.37 0.34 3.74 0 0 Z " fill="#C5F7FC" transform="translate(55,97)"/>
</svg>
